<svg width="512" height="512" viewBox="0 0 512 512" fill="none" xmlns="http://www.w3.org/2000/svg">
  <defs>
    <linearGradient id="mainGradient" x1="0" y1="0" x2="512" y2="512" gradientUnits="userSpaceOnUse">
      <stop offset="0%" stop-color="#06B6D4"/>
      <stop offset="100%" stop-color="#7C3AED"/>
    </linearGradient>
    <linearGradient id="glowGradient" x1="0" y1="0" x2="512" y2="512" gradientUnits="userSpaceOnUse">
      <stop offset="0%" stop-color="#22D3EE"/>
      <stop offset="100%" stop-color="#A855F7"/>
    </linearGradient>
    <filter id="glow" x="-20%" y="-20%" width="140%" height="140%">
      <feGaussianBlur stdDeviation="10" result="blur"/>
      <feComposite in="SourceGraphic" in2="blur" operator="over"/>
    </filter>
  </defs>
  
  <rect width="512" height="512" rx="120" fill="#0F172A"/>
  
  <!-- Main F Shape -->
  <g filter="url(#glow)">
    <!-- Vertical Bar -->
    <path d="M140 100 H 200 V 412 H 140 Z" fill="url(#mainGradient)"/>
    
    <!-- Top Horizontal Bar -->
    <path d="M140 100 H 372 L 342 160 H 200 V 100 Z" fill="url(#mainGradient)"/>
    
    <!-- Middle Horizontal Bar -->
    <path d="M140 226 H 320 L 290 286 H 200 V 226 Z" fill="url(#mainGradient)"/>
    
    <!-- Tech Accents/Circuit Lines -->
    <circle cx="372" cy="100" r="10" fill="#22D3EE"/>
    <circle cx="320" cy="226" r="10" fill="#22D3EE"/>
    <circle cx="140" cy="412" r="10" fill="#A855F7"/>
  </g>
  
  <!-- Subtle Grid Background -->
  <path d="M0 128 H 512 M0 256 H 512 M0 384 H 512 M128 0 V 512 M256 0 V 512 M384 0 V 512" stroke="white" stroke-opacity="0.05" stroke-width="2"/>
</svg>
